<svg width="319" height="26" viewBox="0 0 319 26" fill="none" xmlns="http://www.w3.org/2000/svg">
<path d="M71.9696 24.9262H69.8326L80.0382 0.460204L90.6711 24.9262H85.7108L83.1205 18.5389H74.521L71.9696 24.9262ZM78.8726 8.25446L75.2333 16.995H82.5636L78.8726 8.25446ZM5.5949 8.8023C6.22951 9.4124 7.43397 10.1345 9.13057 10.8567C11.9151 11.9773 13.7541 13.1352 14.6089 14.1437C15.4766 15.1523 15.8911 16.5219 15.8911 18.1529C15.8911 20.3194 15.0233 22.0501 13.521 23.4944C11.9021 24.8266 9.98534 25.5488 7.62823 25.5488C5.90573 25.5488 4.507 25.225 3.23779 24.6149C2.07219 23.8803 0.971337 22.9465 0 21.6143L1.91677 20.3816C2.55138 21.3902 3.19894 22.2244 4.05371 22.7598C4.92144 23.2702 5.89278 23.594 6.83821 23.594C8.12038 23.594 9.20827 23.1955 10.0631 22.3613C10.9308 21.5271 11.3452 20.5186 11.3452 19.2984C11.3452 17.244 9.50615 15.5133 5.75031 14.069H5.63375C3.63928 13.1975 2.2535 12.3757 1.38577 11.3672C0.530998 10.3462 0.11656 9.08867 0.11656 7.56966C0.11656 5.51527 0.867728 3.74724 2.2535 2.40254C3.63928 1.0703 5.47834 0.447753 7.8484 0.447753C9.57091 0.447753 11.0732 0.846182 12.2388 1.56833C13.521 2.40254 14.4923 3.41107 15.127 4.74331L13.5081 5.78919C13.0936 4.66861 12.5367 3.8344 11.669 3.2243C10.9308 2.62666 9.95944 2.30294 8.79384 2.30294C7.51167 2.30294 6.54034 2.62666 5.78917 3.42352C5.038 4.14567 4.62356 5.07949 4.62356 6.31212C4.62356 7.24594 4.96029 8.08015 5.5949 8.8023ZM36.7295 21.3155C37.4807 20.1949 37.8951 18.2525 37.8951 15.4635H38.0117V0.95824H40.2652V16.2604C40.2652 19.3233 39.6306 21.7139 38.1282 23.2578C36.6259 24.8142 34.3724 25.6359 31.4843 25.6359C30.2021 25.6359 28.894 25.3122 27.7284 24.9138C26.4463 24.5153 25.4749 23.9052 24.7238 23.071C23.9726 22.2368 23.4416 21.4151 23.1049 20.3941C22.7681 19.3856 22.5739 18.016 22.5739 16.2853V1.0703H27.1974V15.476C27.1974 18.2525 27.5342 20.2073 28.363 21.3279C29.2308 22.4485 30.6165 22.9839 32.5722 22.9839C34.476 22.9839 35.8747 22.4734 36.7295 21.3155ZM64.6781 14.4301C63.8104 13.4216 62.5411 12.5874 60.8057 12.1516C62.1915 11.8279 63.2794 11.2178 64.0305 10.3089C64.7817 9.37504 65.1184 8.35407 65.1184 7.02182C65.1184 5.90124 64.7817 4.85537 64.2507 3.9589C63.7197 3.02509 62.8649 2.30294 61.8806 1.79245C61.3496 1.46873 60.4949 1.28196 59.5106 1.18236C58.4227 1.0703 57.1405 0.970691 55.6382 0.970691H48.2431V24.9387H57.0758C60.0804 24.9387 62.3339 24.4282 63.8363 23.3823C65.3386 22.3738 65.9732 20.7054 65.9732 18.5514C66.0639 16.9203 65.6624 15.588 64.6781 14.4301ZM52.9573 2.5146H54.7964C56.8297 2.5146 58.332 2.91303 59.3034 3.63518C60.2747 4.35733 60.8057 5.47791 60.8057 7.02182C60.8057 8.67779 60.3913 9.79837 59.5235 10.5205C58.6558 11.2427 57.27 11.6411 55.2367 11.6411H52.9832V2.5146H52.9573ZM60.1711 22.2617C59.3034 22.9839 57.801 23.3823 55.8843 23.3823H52.9573V13.0979H55.2108C57.3477 13.0979 58.9666 13.6083 60.0545 14.5422C61.1424 15.476 61.6734 16.9203 61.6734 18.8751C61.5569 20.419 61.1554 21.5396 60.1711 22.2617ZM111.626 12.0769C112.714 11.0684 113.349 9.69877 113.349 7.96809C113.349 5.68958 112.597 3.95891 110.978 2.73872C109.36 1.61814 107.002 1.00804 103.881 1.00804H95.735V24.976H100.359V2.5146H102.275C104.412 2.5146 106.031 2.91303 107.119 3.84685C108.207 4.68106 108.738 6.0133 108.738 7.85603C108.738 9.512 108.207 10.6326 107.119 11.4668C106.031 12.1889 104.231 12.6994 101.524 12.9111L108.168 25.0383H113.31L106.666 13.8076C108.932 13.6332 110.538 12.9858 111.626 12.0769ZM135.482 24.9262H120.005V0.95824H135.482V2.68891H124.629V11.529H134.614V13.2597H124.629V23.0461H135.482V24.9262ZM150.622 17.3187L143.978 0.970691H139.134L149.469 25.5488L159.351 0.970691H156.981L150.622 17.3187ZM161.928 24.9262H159.675L169.971 0.460204L180.604 24.9262H175.644L173.053 18.5389H164.454L161.928 24.9262ZM168.805 8.25446L165.166 16.995H172.496L168.805 8.25446ZM217.554 18.3646C216.686 20.0953 215.637 21.3653 214.329 22.2617C213.047 23.1955 211.544 23.594 209.822 23.594C207.348 23.594 205.315 22.6601 203.929 20.8174C202.543 18.9747 201.896 16.4098 201.896 13.0979C201.896 9.71122 202.647 6.92222 204.033 4.97988C205.535 3.02509 207.491 1.97921 209.925 1.97921C211.428 1.97921 212.71 2.37764 213.901 3.09979C215.067 3.82195 216.038 4.94253 216.789 6.38683L218.292 5.37831C217.32 3.72234 216.038 2.4897 214.419 1.65549C212.93 0.82128 211.091 0.422852 208.954 0.422852C205.496 0.422852 202.608 1.65549 200.238 4.03361C197.868 6.41173 196.78 9.37504 196.78 12.9858C196.78 16.7086 197.946 19.6595 200.238 22.0501C202.491 24.4282 205.379 25.5488 208.837 25.5488C211.091 25.5488 213.124 25.0383 214.847 23.8928C216.569 22.7722 217.968 21.2158 218.939 19.2735L217.554 18.3646ZM229.495 23.0959H240.231V24.9387H224.754V0.95824H229.482V23.0959H229.495ZM249.711 0.95824H245.088V24.9262H249.711V0.95824ZM262.248 0.95824L275.134 17.5304V0.95824H277.388V24.9262H275.134L260.189 5.80164V24.9262H257.935V0.95824H262.248ZM290.43 0.95824H285.806V24.9262H290.43V0.95824ZM314.389 22.2617C315.672 21.3279 316.759 20.0953 317.614 18.3646L319 19.2984C318.029 21.2532 316.63 22.7971 314.907 23.9177C313.185 25.0383 311.152 25.5737 308.898 25.5737C305.44 25.5737 302.552 24.4531 300.299 22.075C298.045 19.6968 296.841 16.7335 296.841 13.0107C296.841 9.39995 297.928 6.43663 300.299 4.05851C302.669 1.68039 305.557 0.447753 309.015 0.447753C311.152 0.447753 312.991 0.846182 314.493 1.68039C316.112 2.5146 317.381 3.73479 318.365 5.40321L316.863 6.41173C316.112 4.96743 315.141 3.84685 313.975 3.1247C312.809 2.40254 311.501 2.00411 309.999 2.00411C307.525 2.00411 305.609 3.01264 304.106 5.00478C302.72 6.95957 301.969 9.73612 301.969 13.1228C301.969 16.4098 302.604 18.9747 304.003 20.8423C305.388 22.685 307.461 23.6189 309.895 23.6189C311.566 23.594 313.068 23.1582 314.389 22.2617Z" fill="#000125"/>
</svg>
